<svg xmlns="http://www.w3.org/2000/svg" viewBox="0 0 48 48">
  <path d="M24 4L8 10v28l16 6 16-6V10L24 4z" fill="#E25444"/>
  <path d="M24 4L8 10l16 6 16-6L24 4z" fill="#5E1F18"/>
  <path d="M24 16v28l16-6V10L24 16z" fill="#8C3123"/>
  <path d="M24 16L8 10v28l16 6V16z" fill="#E25444"/>
  <path d="M19 18l5 2v10l-5-2V18z" fill="#fff" fill-opacity="0.5"/>
  <path d="M29 18l-5 2v10l5-2V18z" fill="#fff" fill-opacity="0.3"/>
  <ellipse cx="24" cy="28" rx="6" ry="2" fill="#5E1F18"/>
  <ellipse cx="24" cy="32" rx="6" ry="2" fill="#5E1F18"/>
  <ellipse cx="24" cy="36" rx="6" ry="2" fill="#5E1F18"/>
</svg>
