<svg viewBox="0 0 24 24" fill="currentColor" xmlns="http://www.w3.org/2000/svg">
  <path d="M17.5 8.167V5.833a1.333 1.333 0 0 0-1.333-1.333h-.001a1.333 1.333 0 0 0-1.333 1.333v2.334a4.167 4.167 0 0 0-2.5 3.833 4.167 4.167 0 0 0 1.389 3.111l-1.889 2.722a1.667 1.667 0 1 0 2.778 1.834l1.778-2.556c.203.042.413.056.611.056a4.167 4.167 0 0 0 4.167-4.167 4.167 4.167 0 0 0-3.667-4.133zM17 14.5a2.5 2.5 0 1 1 0-5 2.5 2.5 0 0 1 0 5zM6.5 7.833a1.667 1.667 0 1 0 0-3.333 1.667 1.667 0 0 0 0 3.333zM7.833 8.5H5.167A1.167 1.167 0 0 0 4 9.667v4.166h1.667V19.5h1.666v-5.667H9V9.667A1.167 1.167 0 0 0 7.833 8.5z"/>
</svg>
